<?xml version="1.0" standalone="no"?>
<!DOCTYPE svg PUBLIC "-//W3C//DTD SVG 20010904//EN"
 "http://www.w3.org/TR/2001/REC-SVG-20010904/DTD/svg10.dtd">
<svg version="1.0" xmlns="http://www.w3.org/2000/svg"
 width="1024.000000pt" height="1024.000000pt" viewBox="0 0 1024.000000 1024.000000"
 preserveAspectRatio="xMidYMid meet">

<g transform="translate(0.000000,1024.000000) scale(0.100000,-0.100000)"
fill="#000000" stroke="none">
<path d="M7152 9244 c-131 -35 -254 -130 -310 -239 -65 -128 -81 -280 -41
-397 23 -71 45 -105 103 -165 l40 -43 -22 -37 c-12 -21 -61 -110 -109 -198
-115 -213 -162 -295 -171 -295 -4 0 -17 7 -29 15 -105 74 -578 263 -737 294
-23 5 -93 21 -156 35 -155 36 -364 56 -605 56 -240 0 -363 -11 -578 -51 -316
-58 -648 -171 -912 -309 -151 -79 -401 -245 -531 -352 -241 -199 -502 -498
-648 -743 -135 -226 -247 -451 -281 -565 -13 -43 -25 -50 -82 -50 -78 0 -240
-19 -297 -36 -138 -39 -309 -180 -383 -315 -83 -149 -85 -165 -86 -557 0 -291
2 -358 16 -415 20 -82 62 -166 113 -230 54 -66 217 -202 278 -232 68 -33 189
-63 312 -77 l101 -11 13 -51 c53 -213 228 -550 427 -824 132 -180 353 -413
483 -510 19 -14 49 -38 65 -53 105 -96 394 -277 635 -399 244 -123 720 -240
1116 -275 132 -11 208 -12 349 -5 99 5 191 12 205 14 14 2 62 9 108 15 89 13
186 33 382 80 400 95 760 276 1167 584 180 137 501 492 672 743 96 143 268
515 301 652 12 51 13 52 49 52 21 0 94 11 162 25 235 46 392 160 519 374 68
114 71 142 70 521 0 296 -3 345 -20 418 -54 226 -221 403 -454 479 -59 19
-166 35 -315 46 -32 2 -34 5 -63 84 -79 219 -281 570 -459 798 -147 189 -472
500 -607 582 l-31 19 36 55 c36 52 244 414 284 492 11 21 23 35 28 33 12 -8
170 19 206 35 54 23 152 97 174 131 11 18 35 53 51 78 62 92 89 260 60 371
-32 119 -154 270 -260 321 -99 47 -235 60 -338 32z m203 -293 c103 -46 151
-167 106 -266 -24 -55 -71 -91 -139 -111 -52 -15 -60 -15 -108 0 -65 20 -126
85 -142 149 -12 48 -1 116 25 157 51 79 169 112 258 71z m-2114 -1021 c395
-17 674 -83 1034 -247 154 -70 223 -108 370 -206 319 -212 607 -512 816 -849
195 -314 307 -616 381 -1028 30 -167 32 -551 4 -730 -77 -492 -241 -881 -538
-1272 -155 -204 -347 -387 -593 -566 -200 -145 -487 -289 -743 -371 -346 -112
-454 -130 -797 -135 -350 -6 -560 20 -882 110 -431 120 -761 309 -1142 653
-117 106 -259 279 -390 475 -184 276 -286 506 -365 826 -42 166 -42 168 -61
370 -54 571 60 1115 339 1615 49 86 188 283 277 390 268 322 691 618 1129 788
263 102 593 169 910 184 19 1 132 -2 251 -7z m2999 -2051 c119 -39 215 -118
267 -219 l28 -55 0 -335 c0 -328 0 -336 -22 -377 -47 -86 -140 -149 -275 -184
l-71 -18 6 67 c25 276 29 361 24 602 -5 249 -17 368 -52 518 -7 28 11 29 95 1z
m-6194 -65 c-4 -37 -13 -97 -21 -134 -46 -217 -45 -644 1 -914 8 -48 13 -90
11 -92 -8 -9 -166 51 -212 81 -62 39 -142 126 -167 182 -17 39 -19 67 -16 360
l3 318 30 59 c51 101 150 168 287 195 93 19 92 20 84 -55z"/>
<path d="M3590 6309 c-293 -78 -513 -314 -566 -606 -80 -445 194 -838 635
-911 424 -70 846 250 894 678 9 81 8 115 -6 199 -48 296 -235 522 -517 627
-67 25 -90 28 -220 30 -119 2 -158 -1 -220 -17z m324 -524 c152 -104 164 -295
25 -405 -69 -54 -140 -70 -214 -46 -164 51 -241 219 -169 365 47 93 116 132
229 128 64 -2 76 -6 129 -42z"/>
<path d="M6251 6319 c-200 -35 -387 -168 -504 -356 -66 -108 -98 -212 -104
-344 -13 -252 59 -432 243 -610 128 -122 257 -186 425 -209 399 -55 768 199
855 589 20 89 14 269 -11 366 -64 244 -272 465 -510 541 -65 21 -104 27 -210
30 -71 1 -154 -1 -184 -7z m278 -513 c107 -55 161 -172 131 -286 -16 -63 -107
-151 -173 -169 -118 -33 -243 20 -300 129 -25 48 -28 64 -25 121 10 185 198
290 367 205z"/>
<path d="M4528 4470 c-75 -9 -138 -86 -138 -167 0 -117 156 -287 335 -365 121
-53 175 -62 380 -62 216 -1 265 8 400 73 224 107 363 300 301 419 -32 62 -96
102 -162 102 -61 0 -98 -24 -173 -113 -108 -129 -115 -131 -365 -124 -110 3
-214 10 -231 16 -16 6 -73 56 -125 111 -104 109 -129 121 -222 110z"/>
</g>
</svg>
